<svg width="16" height="16" viewBox="0 0 16 16" fill="none" xmlns="http://www.w3.org/2000/svg">
<rect x="0.5" y="0.5" width="15" height="15" rx="4.5" stroke="#798FA5"/>
<path d="M3.65067 8.29877C3.29172 7.94119 3.29172 7.35999 3.65067 7.00242C4.00767 6.64678 4.58505 6.64678 4.94205 7.00242L7.85886 9.90805C8.21781 10.2656 8.21781 10.8468 7.85886 11.2044C7.50185 11.56 6.92448 11.56 6.56747 11.2044L3.65067 8.29877Z" fill="#798FA5"/>
<path d="M12.058 4.65178C12.4143 4.2921 12.9949 4.29018 13.3536 4.64749C13.7109 5.0034 13.7128 5.5813 13.3579 5.93956L7.99981 11.3482C7.6435 11.7079 7.06283 11.7098 6.70415 11.3525C6.34687 10.9966 6.34496 10.4187 6.69987 10.0604L12.058 4.65178Z" fill="#798FA5"/>
</svg>
