<svg width="150" height="150" viewBox="0 0 150 150" fill="none" xmlns="http://www.w3.org/2000/svg">
<rect width="150" height="150" rx="20" fill="#0A4B8C"/>
<path fill-rule="evenodd" clip-rule="evenodd" d="M72.0773 128C61.4055 128 51.8128 125.784 43.2992 121.311C34.8257 116.839 28.1508 110.586 23.2745 102.631C18.4381 94.6359 16 85.6121 16 75.5198C16 65.3879 18.4381 56.3641 23.2745 48.3694C28.1508 40.4142 34.8257 34.161 43.2992 29.6887C51.8128 25.2164 61.4055 23 72.0773 23C81.3903 23 89.8239 24.6227 97.2982 27.9077C104.772 31.1926 110.968 35.9024 115.924 42.0369L97.578 58.5013C90.983 50.5858 82.9491 46.6675 73.5562 46.6675C68.0005 46.6675 63.0842 47.8549 58.7675 50.2691C54.4508 52.6834 51.0933 56.0475 48.6951 60.4406C46.3369 64.7942 45.1378 69.8206 45.1378 75.5198C45.1378 81.1794 46.3369 86.2058 48.6951 90.5594C51.0933 94.9525 54.4508 98.3562 58.7675 100.731C63.0842 103.145 68.0005 104.332 73.5562 104.332C82.9491 104.332 90.983 100.414 97.578 92.5383L115.924 108.963C110.968 115.137 104.772 119.847 97.2982 123.092C89.8239 126.377 81.3903 128 72.0773 128ZM118.852 59.9657C127.205 59.9657 134 66.6939 134 74.9657C134 83.277 127.205 89.9657 118.852 89.9657C110.458 89.9657 103.663 83.277 103.663 74.9657C103.663 66.6939 110.458 59.9657 118.852 59.9657Z" fill="white"/>
</svg>
