<svg width="567" height="105" viewBox="0 0 567 105" fill="none" xmlns="http://www.w3.org/2000/svg">
<path fill-rule="evenodd" clip-rule="evenodd" d="M27.6129 60.1117C22.354 60.1117 17.6321 59.0026 13.4473 56.7819C9.26475 54.5636 5.97734 51.4752 3.58733 47.5119C1.195 43.5533 0 39.0656 0 34.0559C0 29.0461 1.195 24.5584 3.58733 20.5975C5.97734 16.6366 9.26475 13.5481 13.4473 11.3275C17.6321 9.10915 22.354 8 27.6129 8C32.2023 8 36.3383 8.80982 40.0209 10.4341C43.7013 12.0561 46.7632 14.395 49.1997 17.4487L40.1628 25.6096C36.9125 21.695 32.9672 19.7389 28.329 19.7389C25.6042 19.7389 23.1793 20.3353 21.0497 21.528C18.9224 22.7207 17.2741 24.4053 16.1023 26.5749C14.9306 28.7468 14.3447 31.2412 14.3447 34.0559C14.3447 36.8705 14.9306 39.365 16.1023 41.5368C17.2741 43.7064 18.9224 45.3887 21.0497 46.5837C23.1793 47.7764 25.6042 48.3728 28.329 48.3728C32.9672 48.3728 36.9125 46.4167 40.1628 42.5021L49.1997 50.663C46.7632 53.7167 43.7013 56.0556 40.0209 57.6776C36.3383 59.2996 32.2023 60.1117 27.6129 60.1117ZM79.7536 60.1117C74.4458 60.1117 69.6775 58.991 65.4461 56.7471C61.2148 54.5033 57.8902 51.4032 55.4769 47.4423C53.0613 43.4814 51.8547 39.0192 51.8547 34.0559C51.8547 29.0925 53.0613 24.6304 55.4769 20.6694C57.8902 16.7085 61.2148 13.6061 65.4461 11.3646C69.6775 9.12076 74.4458 8 79.7536 8C85.0614 8 89.8297 9.12076 94.0611 11.3646C98.2924 13.6061 101.617 16.7085 104.03 20.6694C106.446 24.6304 107.652 29.0925 107.652 34.0559C107.652 39.0192 106.446 43.4814 104.03 47.4423C101.617 51.4032 98.2924 54.5033 94.0611 56.7471C89.8297 58.991 85.0614 60.1117 79.7536 60.1117ZM79.7536 48.3728C82.2878 48.3728 84.5824 47.7764 86.64 46.5837C88.6952 45.3887 90.3203 43.7064 91.5153 41.5368C92.7103 39.365 93.3078 36.8705 93.3078 34.0559C93.3078 31.2412 92.7103 28.7468 91.5153 26.5749C90.3203 24.4053 88.6952 22.7207 86.64 21.528C84.5824 20.3353 82.2878 19.7389 79.7536 19.7389C77.2195 19.7389 74.9248 20.3353 72.8672 21.528C70.812 22.7207 69.1869 24.4053 67.9919 26.5749C66.7969 28.7468 66.1971 31.2412 66.1971 34.0559C66.1971 36.8705 66.7969 39.365 67.9919 41.5368C69.1869 43.7064 70.812 45.3887 72.8672 46.5837C74.9248 47.7764 77.2195 48.3728 79.7536 48.3728ZM162.878 9.00242V59.1093H151.189L129.025 32.4084V59.1093H115.113V9.00242H126.803L148.964 35.7033V9.00242H162.878ZM190.563 60.1117C186.497 60.1117 182.554 59.6105 178.73 58.6081C174.903 57.6057 171.797 56.2691 169.404 54.6007L174.068 44.1496C176.314 45.6277 178.92 46.8204 181.884 47.7277C184.849 48.635 187.766 49.0875 190.633 49.0875C196.085 49.0875 198.81 47.7277 198.81 45.0082C198.81 43.5765 198.033 42.5137 196.48 41.8223C194.925 41.1308 192.428 40.4022 188.985 39.6388C185.207 38.8289 182.052 37.9565 179.518 37.026C176.984 36.0955 174.807 34.6035 172.992 32.5522C171.174 30.501 170.267 27.7327 170.267 24.2498C170.267 21.1938 171.102 18.4395 172.775 15.9822C174.449 13.5226 176.949 11.5781 180.271 10.1464C183.593 8.71469 187.669 8 192.498 8C195.799 8 199.049 8.36894 202.253 9.10915C205.457 9.84936 208.277 10.9353 210.716 12.367L206.34 22.8877C201.56 20.3121 196.922 19.0243 192.428 19.0243C189.605 19.0243 187.55 19.4419 186.26 20.2773C184.967 21.1103 184.323 22.1963 184.323 23.5328C184.323 24.8694 185.088 25.8718 186.618 26.5401C188.148 27.2083 190.61 27.8998 194.004 28.6145C197.831 29.4266 200.997 30.2968 203.508 31.2273C206.019 32.1578 208.193 33.6382 210.034 35.6662C211.876 37.6943 212.796 40.4509 212.796 43.9338C212.796 46.9411 211.959 49.6606 210.285 52.0947C208.612 54.5288 206.101 56.4733 202.755 57.9282C199.407 59.3831 195.343 60.1117 190.563 60.1117ZM259.629 48.157V59.1093H219.322V9.00242H258.697V19.9547H233.379V28.401H255.684V38.9937H233.379V48.157H259.629ZM315.285 9.00242V59.1093H303.593L281.432 32.4084V59.1093H267.518V9.00242H279.21L301.371 35.7033V9.00242H315.285ZM342.968 60.1117C338.904 60.1117 334.961 59.6105 331.134 58.6081C327.31 57.6057 324.201 56.2691 321.811 54.6007L326.473 44.1496C328.721 45.6277 331.327 46.8204 334.291 47.7277C337.256 48.635 340.171 49.0875 343.04 49.0875C348.492 49.0875 351.217 47.7277 351.217 45.0082C351.217 43.5765 350.44 42.5137 348.885 41.8223C347.332 41.1308 344.832 40.4022 341.392 39.6388C337.614 38.8289 334.459 37.9565 331.925 37.026C329.39 36.0955 327.214 34.6035 325.399 32.5522C323.581 30.501 322.671 27.7327 322.671 24.2498C322.671 21.1938 323.508 18.4395 325.182 15.9822C326.856 13.5226 329.353 11.5781 332.678 10.1464C336 8.71469 340.076 8 344.905 8C348.204 8 351.456 8.36894 354.66 9.10915C357.864 9.84936 360.684 10.9353 363.123 12.367L358.747 22.8877C353.965 20.3121 349.329 19.0243 344.832 19.0243C342.012 19.0243 339.957 19.4419 338.667 20.2773C337.374 21.1103 336.73 22.1963 336.73 23.5328C336.73 24.8694 337.495 25.8718 339.025 26.5401C340.555 27.2083 343.017 27.8998 346.411 28.6145C350.236 29.4266 353.404 30.2968 355.915 31.2273C358.424 32.1578 360.6 33.6382 362.441 35.6662C364.283 37.6943 365.203 40.4509 365.203 43.9338C365.203 46.9411 364.366 49.6606 362.692 52.0947C361.018 54.5288 358.508 56.4733 355.162 57.9282C351.814 59.3831 347.75 60.1117 342.968 60.1117ZM437.926 59.1093L437.782 32.5522L424.874 54.1692H418.562L405.724 33.2692V59.1093H392.6V9.00242H404.29L421.933 37.9217L439.147 9.00242H450.837L450.981 59.1093H437.926ZM501.327 48.157V59.1093H461.02V9.00242H500.397V19.9547H475.078V28.401H497.384V38.9937H475.078V48.157H501.327ZM509.217 9.00242H532.957C538.455 9.00242 543.333 10.028 547.588 12.0793C551.842 14.1328 555.141 17.0426 557.485 20.8133C559.828 24.584 561 28.9974 561 34.0559C561 39.1143 559.828 43.5278 557.485 47.2984C555.141 51.0691 551.842 53.9789 547.588 56.0301C543.333 58.0837 538.455 59.1093 532.957 59.1093H509.217V9.00242ZM532.383 47.7996C536.686 47.7996 540.141 46.5837 542.747 44.1496C545.353 41.7155 546.655 38.3509 546.655 34.0559C546.655 29.7608 545.353 26.3962 542.747 23.9621C540.141 21.528 536.686 20.3121 532.383 20.3121H523.418V47.7996H532.383ZM377.749 26.3405C381.871 26.3405 385.211 29.6749 385.211 33.789C385.211 37.9031 381.871 41.2375 377.749 41.2375C373.626 41.2375 370.286 37.9031 370.286 33.789C370.286 29.6749 373.626 26.3405 377.749 26.3405ZM8.82535 98.171H4.44987V70.1846H8.82535V79.5544C10.3365 77.886 12.3127 77.053 14.7515 77.053C16.8463 77.053 18.5574 77.7538 19.8826 79.1576C21.2357 80.5592 21.9122 82.4642 21.9122 84.8728V98.171H17.5368V85.2696C17.5368 83.8936 17.1927 82.8424 16.5022 82.1138C15.814 81.3875 14.898 81.0232 13.7588 81.0232C11.9291 81.0232 10.2854 81.9096 8.82535 83.6824V98.171ZM42.6481 98.649C39.9419 98.649 37.7937 97.9738 36.2034 96.6233C34.6132 95.2729 33.8181 93.4212 33.8181 91.066V84.715C33.8181 82.3853 34.6132 80.5336 36.2034 79.1576C37.8472 77.7538 39.9954 77.053 42.6481 77.053C45.2729 77.053 47.3467 77.7282 48.8719 79.0764C50.397 80.4269 51.1596 82.2786 51.1596 84.6361V89.2792H38.1912V90.9871C38.1912 92.1241 38.5842 93.0244 39.3653 93.6857C40.1488 94.347 41.2415 94.6788 42.6481 94.6788C44.98 94.6788 46.347 93.7646 46.7446 91.9384H51.1177C50.9062 94.0291 50.0576 95.6696 48.5743 96.8623C47.0887 98.0527 45.1125 98.649 42.6481 98.649ZM38.1912 84.6361V85.9448H46.7841V84.6361C46.7841 83.5246 46.4051 82.6429 45.6495 81.9955C44.894 81.3458 43.8408 81.0232 42.4877 81.0232C41.1346 81.0232 40.0814 81.3458 39.3258 81.9955C38.5702 82.6429 38.1912 83.5246 38.1912 84.6361ZM68.7917 98.649C66.7504 98.649 65.0858 98.1061 63.8001 97.0201C62.5144 95.9365 61.8704 94.4538 61.8704 92.5742C61.8704 90.4046 62.5865 88.7571 64.0186 87.6317C65.4508 86.5087 67.585 85.9448 70.4238 85.9448H74.9573V84.3182C74.9573 82.1208 73.6577 81.0232 71.0585 81.0232C69.8123 81.0232 68.8521 81.2878 68.1756 81.8168C67.499 82.3459 67.1619 83.0605 67.1619 83.9609H62.905C62.905 81.8168 63.6071 80.1299 65.0137 78.8977C66.4179 77.6679 68.4336 77.053 71.0585 77.053C73.7112 77.053 75.7524 77.6749 77.1846 78.9186C78.6167 80.1624 79.3328 81.8702 79.3328 84.0398V98.171H76.787L75.1154 95.8692C73.5786 97.7209 71.47 98.649 68.7917 98.649ZM69.6682 94.6788C71.7094 94.6788 73.4717 93.8969 74.9573 92.3352V89.2792H70.4238C67.6385 89.2792 66.2459 90.219 66.2459 92.0985C66.2459 93.818 67.3874 94.6788 69.6682 94.6788ZM96.5278 98.171H92.1523V70.1846H96.5278V98.171ZM119.649 98.171H117.54C112.742 98.171 110.342 95.7114 110.342 90.7875V81.3411H107.16V77.5287H110.342V73.2429H114.718V77.5287H119.649V81.3411H114.718V90.827C114.718 93.1822 115.659 94.3609 117.54 94.3609H119.649V98.171ZM135.651 98.171H131.276V70.1846H135.651V79.5544C137.163 77.886 139.139 77.053 141.578 77.053C143.672 77.053 145.383 77.7538 146.709 79.1576C148.062 80.5592 148.736 82.4642 148.736 84.8728V98.171H144.363V85.2696C144.363 83.8936 144.019 82.8424 143.328 82.1138C142.638 81.3875 141.724 81.0232 140.582 81.0232C138.755 81.0232 137.109 81.9096 135.651 83.6824V98.171ZM189.554 98.649C186.904 98.649 184.802 97.9599 183.249 96.5839C181.698 95.2079 180.924 93.3423 180.924 90.9871V84.715C180.924 82.3598 181.698 80.4942 183.249 79.1182C184.802 77.7422 186.904 77.053 189.554 77.053C192.154 77.053 194.209 77.7282 195.72 79.0764C197.231 80.4269 197.987 82.2786 197.987 84.6361V84.8728H193.611V84.6361C193.611 83.5246 193.253 82.6429 192.537 81.9955C191.821 81.3458 190.828 81.0232 189.554 81.0232C188.176 81.0232 187.122 81.3411 186.392 81.9746C185.662 82.6104 185.3 83.4968 185.3 84.6361V91.066C185.3 92.203 185.662 93.0893 186.392 93.7251C187.122 94.3609 188.176 94.6788 189.554 94.6788C190.828 94.6788 191.821 94.354 192.537 93.7066C193.253 93.0569 193.611 92.1774 193.611 91.066V90.7086H197.987V90.9871C197.987 93.3144 197.206 95.1824 195.641 96.5839C194.102 97.9599 192.074 98.649 189.554 98.649ZM215.461 98.649C213.419 98.649 211.755 98.1061 210.469 97.0201C209.183 95.9365 208.539 94.4538 208.539 92.5742C208.539 90.4046 209.256 88.7571 210.688 87.6317C212.12 86.5087 214.254 85.9448 217.093 85.9448H221.626V84.3182C221.626 82.1208 220.327 81.0232 217.728 81.0232C216.481 81.0232 215.521 81.2878 214.845 81.8168C214.168 82.3459 213.831 83.0605 213.831 83.9609H209.574C209.574 81.8168 210.276 80.1299 211.683 78.8977C213.087 77.6679 215.103 77.053 217.728 77.053C220.38 77.053 222.421 77.6749 223.854 78.9186C225.286 80.1624 226.002 81.8702 226.002 84.0398V98.171H223.456L221.784 95.8692C220.248 97.7209 218.139 98.649 215.461 98.649ZM216.335 94.6788C218.378 94.6788 220.141 93.8969 221.626 92.3352V89.2792H217.093C214.308 89.2792 212.915 90.219 212.915 92.0985C212.915 93.818 214.056 94.6788 216.335 94.6788ZM243.197 98.171H238.821V77.5287H241.009L242.678 79.8305C244.297 77.9789 246.194 77.053 248.367 77.053H249.163V81.2205H248.565C246.259 81.2205 244.469 81.963 243.197 83.4434V98.171ZM267.711 98.649C265.007 98.649 262.859 97.9738 261.266 96.6233C259.676 95.2729 258.881 93.4212 258.881 91.066V84.715C258.881 82.3853 259.676 80.5336 261.266 79.1576C262.91 77.7538 265.058 77.053 267.711 77.053C270.336 77.053 272.409 77.7282 273.934 79.0764C275.46 80.4269 276.222 82.2786 276.222 84.6361V89.2792H263.256V90.9871C263.256 92.1241 263.647 93.0244 264.428 93.6857C265.211 94.347 266.304 94.6788 267.711 94.6788C270.045 94.6788 271.41 93.7646 271.807 91.9384H276.183C275.971 94.0291 275.122 95.6696 273.637 96.8623C272.151 98.0527 270.175 98.649 267.711 98.649ZM263.256 84.6361V85.9448H271.847V84.6361C271.847 83.5246 271.468 82.6429 270.712 81.9955C269.959 81.3458 268.903 81.0232 267.55 81.0232C266.199 81.0232 265.144 81.3458 264.388 81.9955C263.633 82.6429 263.256 83.5246 263.256 84.6361ZM316.324 98.649C313.672 98.649 311.57 97.9599 310.019 96.5839C308.469 95.2079 307.692 93.3423 307.692 90.9871V84.715C307.692 82.3598 308.469 80.4942 310.019 79.1182C311.57 77.7422 313.672 77.053 316.324 77.053C318.921 77.053 320.977 77.7282 322.49 79.0764C324.001 80.4269 324.755 82.2786 324.755 84.6361V84.8728H320.381V84.6361C320.381 83.5246 320.023 82.6429 319.307 81.9955C318.591 81.3458 317.596 81.0232 316.324 81.0232C314.946 81.0232 313.89 81.3411 313.163 81.9746C312.433 82.6104 312.068 83.4968 312.068 84.6361V91.066C312.068 92.203 312.433 93.0893 313.163 93.7251C313.89 94.3609 314.946 94.6788 316.324 94.6788C317.596 94.6788 318.591 94.354 319.307 93.7066C320.023 93.0569 320.381 92.1774 320.381 91.066V90.7086H324.755V90.9871C324.755 93.3144 323.973 95.1824 322.409 96.5839C320.872 97.9599 318.842 98.649 316.324 98.649ZM369.925 98.171H365.55V77.5287H368.096L369.728 79.8305C371.264 77.9789 373.306 77.053 375.851 77.053C378.025 77.053 379.764 77.7468 381.062 79.1367C382.361 80.5267 383.012 82.4387 383.012 84.8728V98.171H378.637V85.2696C378.637 83.8936 378.293 82.8424 377.602 82.1138C376.912 81.3875 375.998 81.0232 374.859 81.0232C373.029 81.0232 371.383 81.9096 369.925 83.6824V98.171ZM403.706 98.649C400.895 98.649 398.682 97.9808 397.064 96.6442C395.448 95.3077 394.639 93.4467 394.639 91.066H399.014C399.014 92.1774 399.47 93.0569 400.386 93.7066C401.3 94.354 402.527 94.6788 404.064 94.6788C405.231 94.6788 406.159 94.4723 406.849 94.0639C407.538 93.6532 407.884 93.1033 407.884 92.4164C407.884 91.3838 407.128 90.6692 405.617 90.2724L400.247 88.8825C398.629 88.4601 397.396 87.8243 396.548 86.9774C395.699 86.1304 395.274 84.9401 395.274 83.404C395.274 81.4734 396.011 79.9303 397.482 78.7794C398.954 77.6285 400.949 77.053 403.469 77.053C406.066 77.053 408.121 77.6934 409.632 78.979C411.146 80.2621 411.901 82.0813 411.901 84.4365H407.526C407.526 83.3506 407.133 82.5106 406.352 81.9166C405.571 81.3202 404.515 81.0232 403.19 81.0232C402.023 81.0232 401.142 81.2205 400.544 81.6173C399.949 82.014 399.649 82.5431 399.649 83.2067C399.649 84.1326 400.405 84.7939 401.916 85.1907L407.247 86.5017C410.588 87.3487 412.259 89.2003 412.259 92.0591C412.259 93.9897 411.476 95.5791 409.911 96.8229C408.375 98.0388 406.305 98.649 403.706 98.649ZM431.363 98.649C429.215 98.649 427.499 97.9529 426.211 96.563C424.926 95.1754 424.284 93.2634 424.284 90.827V77.5287H428.659V90.4302C428.659 91.8062 428.996 92.8596 429.673 93.5859C430.35 94.3145 431.256 94.6788 432.398 94.6788C434.174 94.6788 435.792 93.7924 437.25 92.0196V77.5287H441.625V98.171H439.08L437.408 95.8692C435.871 97.7209 433.855 98.649 431.363 98.649ZM482.142 98.171H480.033C475.234 98.171 472.835 95.7114 472.835 90.7875V81.3411H469.652V77.5287H472.835V73.2429H477.208V77.5287H482.142V81.3411H477.208V90.827C477.208 93.1822 478.15 94.3609 480.033 94.3609H482.142V98.171ZM498.144 98.171H493.768V77.5287H498.144V98.171ZM498.144 74.5516H493.768V70.1846H498.144V74.5516ZM515.539 98.171H511.161V77.5287H513.707L515.339 79.8305C516.876 77.9789 518.917 77.053 521.463 77.053C523.639 77.053 525.375 77.7468 526.675 79.1367C527.972 80.5267 528.623 82.4387 528.623 84.8728V98.171H524.248V85.2696C524.248 83.8936 523.904 82.8424 523.213 82.1138C522.525 81.3875 521.609 81.0232 520.47 81.0232C518.64 81.0232 516.996 81.9096 515.539 83.6824V98.171ZM549.954 105C547.33 105 545.242 104.392 543.691 103.174C542.138 101.956 541.364 100.29 541.364 98.171H545.739C545.739 98.9669 546.109 99.6399 546.853 100.197C547.595 100.751 548.629 101.03 549.954 101.03C552.74 101.03 554.132 99.7327 554.132 97.1408V94.043C552.779 95.7114 550.842 96.5444 548.325 96.5444C546.069 96.5444 544.261 95.8901 542.896 94.579C541.529 93.268 540.845 91.3955 540.845 88.9613V84.6361C540.845 82.1741 541.536 80.2946 542.915 78.9975C544.293 77.7004 546.044 77.053 548.164 77.053C550.738 77.053 552.793 77.9789 554.33 79.8305L555.962 77.5287H558.508V97.0201C558.508 99.6143 557.75 101.591 556.239 102.956C554.727 104.318 552.633 105 549.954 105ZM549.278 92.5742C551.003 92.5742 552.619 91.7133 554.132 89.9939V83.6035C552.619 81.8818 551.003 81.0232 549.278 81.0232C548.06 81.0232 547.078 81.3736 546.337 82.0744C545.593 82.7751 545.223 83.7079 545.223 84.8728V88.7247C545.223 89.8872 545.593 90.82 546.337 91.5231C547.078 92.2238 548.06 92.5742 549.278 92.5742ZM349.071 90.7875V84.9122C349.071 83.7474 348.68 82.8076 347.897 82.0953C347.116 81.3806 346.021 81.0232 344.616 81.0232C343.212 81.0232 342.117 81.3806 341.336 82.0953C340.552 82.8076 340.162 83.7474 340.162 84.9122V90.7875C340.162 91.9523 340.552 92.8921 341.336 93.6068C342.117 94.3215 343.212 94.6788 344.616 94.6788C346.021 94.6788 347.116 94.3215 347.897 93.6068C348.68 92.8921 349.071 91.9523 349.071 90.7875ZM335.786 90.9871V84.715C335.786 82.4131 336.563 80.5592 338.114 79.1576C339.664 77.7538 341.831 77.053 344.616 77.053C347.402 77.053 349.568 77.7538 351.119 79.1576C352.67 80.5592 353.446 82.4131 353.446 84.715V90.9871C353.446 93.2889 352.67 95.1406 351.119 96.5444C349.568 97.946 347.402 98.649 344.616 98.649C341.831 98.649 339.664 97.946 338.114 96.5444C336.563 95.1406 335.786 93.2889 335.786 90.9871ZM459.02 98.171H454.645V70.1846H459.02V98.171Z" fill="white" fill-opacity="0.8"/>
</svg>
