<svg width="226" height="72" viewBox="0 0 226 72" fill="none" xmlns="http://www.w3.org/2000/svg">
<g clip-path="url(#clip0_479_1213)">
<path fill-rule="evenodd" clip-rule="evenodd" d="M111.102 51.7342H109.221V39.738H111.102V43.7521C111.749 43.039 112.592 42.6824 113.642 42.6824C114.543 42.6824 115.282 42.9815 115.847 43.5796C116.436 44.1777 116.725 44.9943 116.725 46.0294V51.7342H114.843V46.2019C114.843 45.6154 114.693 45.1553 114.393 44.8447C114.104 44.5342 113.712 44.3847 113.215 44.3847C112.43 44.3847 111.726 44.7642 111.102 45.5233V51.7342ZM125.626 51.9412C124.471 51.9412 123.548 51.6537 122.866 51.0671C122.174 50.492 121.839 49.6984 121.839 48.6863V45.9604C121.839 44.9598 122.174 44.1662 122.866 43.5796C123.571 42.9815 124.494 42.6824 125.626 42.6824C126.757 42.6824 127.646 42.97 128.304 43.5451C128.962 44.1201 129.285 44.9253 129.285 45.9259V47.9272H123.721V48.6518C123.721 49.1463 123.882 49.5259 124.217 49.8134C124.552 50.101 125.025 50.239 125.626 50.239C126.63 50.239 127.219 49.8479 127.392 49.0658H129.274C129.181 49.963 128.812 50.6646 128.177 51.1706C127.542 51.6882 126.688 51.9412 125.626 51.9412ZM123.721 45.9259V46.4895H127.403V45.9259C127.403 45.4543 127.242 45.0748 126.919 44.7987C126.595 44.5227 126.145 44.3847 125.556 44.3847C124.979 44.3847 124.529 44.5227 124.206 44.7987C123.882 45.0748 123.721 45.4543 123.721 45.9259ZM136.859 51.9412C135.981 51.9412 135.277 51.7112 134.723 51.2396C134.169 50.7796 133.892 50.1355 133.892 49.3304C133.892 48.4102 134.203 47.6971 134.815 47.2141C135.427 46.731 136.351 46.4895 137.563 46.4895H139.514V45.7994C139.514 44.8562 138.96 44.3847 137.84 44.3847C137.297 44.3847 136.893 44.4997 136.605 44.7182C136.304 44.9483 136.166 45.2588 136.166 45.6384H134.33C134.33 44.7182 134.642 43.9936 135.242 43.4646C135.843 42.947 136.708 42.6824 137.84 42.6824C138.983 42.6824 139.86 42.947 140.472 43.4761C141.084 44.0166 141.396 44.7412 141.396 45.6729V51.7342H140.299L139.583 50.7451C138.925 51.5387 138.013 51.9412 136.859 51.9412ZM137.239 50.239C138.117 50.239 138.879 49.9055 139.514 49.2384V47.9272H137.563C136.374 47.9272 135.773 48.3297 135.773 49.1348C135.773 49.8709 136.258 50.239 137.239 50.239ZM148.784 51.7342H146.902V39.738H148.784V51.7342ZM158.712 51.7342H157.812C155.746 51.7342 154.718 50.6761 154.718 48.5713V44.5112H153.344V42.878H154.718V41.0377H156.6V42.878H158.712V44.5112H156.6V48.5828C156.6 49.5949 157.004 50.101 157.812 50.101H158.712V51.7342ZM165.593 51.7342H163.711V39.738H165.593V43.7521C166.24 43.039 167.094 42.6824 168.144 42.6824C169.033 42.6824 169.772 42.9815 170.338 43.5796C170.927 44.1777 171.215 44.9943 171.215 46.0294V51.7342H169.334V46.2019C169.334 45.6154 169.183 45.1553 168.895 44.8447C168.595 44.5342 168.202 44.3847 167.706 44.3847C166.921 44.3847 166.216 44.7642 165.593 45.5233V51.7342ZM188.752 51.9412C187.609 51.9412 186.708 51.6422 186.039 51.0556C185.381 50.469 185.046 49.6639 185.046 48.6518V45.9604C185.046 44.9483 185.381 44.1547 186.039 43.5681C186.708 42.97 187.609 42.6824 188.752 42.6824C189.871 42.6824 190.749 42.97 191.407 43.5451C192.053 44.1201 192.377 44.9253 192.377 45.9259V46.0294H190.495V45.9259C190.495 45.4543 190.345 45.0748 190.033 44.7987C189.721 44.5227 189.306 44.3847 188.752 44.3847C188.163 44.3847 187.713 44.5112 187.389 44.7872C187.078 45.0633 186.928 45.4428 186.928 45.9259V48.6863C186.928 49.1809 187.078 49.5604 187.389 49.8249C187.713 50.101 188.163 50.239 188.752 50.239C189.306 50.239 189.721 50.101 190.033 49.8249C190.345 49.5374 190.495 49.1693 190.495 48.6863V48.5368H192.377V48.6518C192.377 49.6524 192.042 50.4575 191.372 51.0556C190.703 51.6422 189.837 51.9412 188.752 51.9412ZM199.881 51.9412C199.003 51.9412 198.287 51.7112 197.745 51.2396C197.191 50.7796 196.914 50.1355 196.914 49.3304C196.914 48.4102 197.214 47.6971 197.837 47.2141C198.449 46.731 199.361 46.4895 200.585 46.4895H202.536V45.7994C202.536 44.8562 201.97 44.3847 200.862 44.3847C200.319 44.3847 199.915 44.4997 199.615 44.7182C199.326 44.9483 199.188 45.2588 199.188 45.6384H197.352C197.352 44.7182 197.652 43.9936 198.264 43.4646C198.865 42.947 199.73 42.6824 200.862 42.6824C201.993 42.6824 202.871 42.947 203.494 43.4761C204.106 44.0166 204.418 44.7412 204.418 45.6729V51.7342H203.321L202.605 50.7451C201.936 51.5387 201.035 51.9412 199.881 51.9412ZM200.262 50.239C201.139 50.239 201.889 49.9055 202.536 49.2384V47.9272H200.585C199.384 47.9272 198.795 48.3297 198.795 49.1348C198.795 49.8709 199.28 50.239 200.262 50.239ZM211.806 51.7342H209.924V42.878H210.859L211.575 43.8671C212.279 43.0735 213.088 42.6824 214.023 42.6824H214.369V44.4652H214.104C213.122 44.4652 212.349 44.7872 211.806 45.4198V51.7342ZM222.335 51.9412C221.169 51.9412 220.245 51.6537 219.564 51.0671C218.883 50.492 218.537 49.6984 218.537 48.6863V45.9604C218.537 44.9598 218.883 44.1662 219.564 43.5796C220.268 42.9815 221.192 42.6824 222.335 42.6824C223.466 42.6824 224.355 42.97 225.013 43.5451C225.66 44.1201 225.994 44.9253 225.994 45.9259V47.9272H220.418V48.6518C220.418 49.1463 220.592 49.5259 220.926 49.8134C221.261 50.101 221.735 50.239 222.335 50.239C223.339 50.239 223.928 49.8479 224.101 49.0658H225.971C225.879 49.963 225.521 50.6646 224.886 51.1706C224.24 51.6882 223.397 51.9412 222.335 51.9412ZM220.418 45.9259V46.4895H224.113V45.9259C224.113 45.4543 223.951 45.0748 223.628 44.7987C223.305 44.5227 222.843 44.3847 222.266 44.3847C221.688 44.3847 221.227 44.5227 220.903 44.7987C220.58 45.0748 220.418 45.4543 220.418 45.9259Z" fill="white"/>
<path fill-rule="evenodd" clip-rule="evenodd" d="M112.927 69.2741C111.784 69.2741 110.883 68.9866 110.214 68.3885C109.555 67.8019 109.221 67.0083 109.221 65.9962V63.3048C109.221 62.2927 109.555 61.4875 110.214 60.901C110.883 60.3144 111.784 60.0153 112.927 60.0153C114.046 60.0153 114.924 60.3029 115.57 60.8895C116.228 61.4645 116.552 62.2581 116.552 63.2703V63.3738H114.67V63.2703C114.67 62.7872 114.52 62.4192 114.208 62.1316C113.896 61.8556 113.469 61.7176 112.927 61.7176C112.338 61.7176 111.876 61.8556 111.564 62.1316C111.253 62.3962 111.102 62.7757 111.102 63.2703V66.0307C111.102 66.5137 111.253 66.8933 111.564 67.1693C111.876 67.4454 112.338 67.5719 112.927 67.5719C113.469 67.5719 113.896 67.4339 114.208 67.1578C114.52 66.8818 114.67 66.5022 114.67 66.0307V65.8696H116.552V65.9962C116.552 66.9968 116.217 67.7904 115.547 68.3885C114.878 68.9866 114.012 69.2741 112.927 69.2741ZM135.958 69.0786H134.076V60.2224H135.173L135.877 61.2115C136.535 60.4179 137.413 60.0153 138.509 60.0153C139.445 60.0153 140.183 60.3144 140.749 60.9125C141.303 61.5105 141.58 62.3272 141.58 63.3738V69.0786H139.698V63.5463C139.698 62.9482 139.548 62.4997 139.26 62.1891C138.96 61.8786 138.567 61.7176 138.082 61.7176C137.297 61.7176 136.581 62.0971 135.958 62.8562V69.0786ZM150.47 69.2741C149.269 69.2741 148.311 68.9981 147.618 68.423C146.925 67.8479 146.579 67.0543 146.579 66.0307H148.461C148.461 66.5022 148.657 66.8818 149.05 67.1578C149.442 67.4339 149.962 67.5719 150.631 67.5719C151.128 67.5719 151.532 67.4914 151.82 67.3073C152.12 67.1348 152.271 66.9048 152.271 66.6057C152.271 66.1687 151.947 65.8581 151.289 65.6856L148.98 65.0875C148.288 64.915 147.757 64.639 147.399 64.2709C147.029 63.9144 146.845 63.3968 146.845 62.7412C146.845 61.9131 147.168 61.246 147.803 60.7629C148.426 60.2684 149.292 60.0153 150.366 60.0153C151.486 60.0153 152.374 60.2914 153.021 60.8434C153.667 61.3955 153.991 62.1776 153.991 63.1898H152.109C152.109 62.7182 151.947 62.3617 151.613 62.0971C151.278 61.8441 150.816 61.7176 150.25 61.7176C149.754 61.7176 149.373 61.8096 149.119 61.9706C148.853 62.1431 148.726 62.3732 148.726 62.6607C148.726 63.0518 149.05 63.3393 149.708 63.5118L151.993 64.0639C153.425 64.4319 154.152 65.2256 154.152 66.4562C154.152 67.2843 153.806 67.9629 153.136 68.492C152.478 69.0211 151.589 69.2741 150.47 69.2741ZM162.361 69.2741C161.437 69.2741 160.698 68.9866 160.144 68.3885C159.59 67.7904 159.313 66.9738 159.313 65.9272V60.2224H161.195V65.7546C161.195 66.3412 161.345 66.8013 161.633 67.1118C161.922 67.4224 162.314 67.5719 162.799 67.5719C163.561 67.5719 164.254 67.1923 164.889 66.4332V60.2224H166.771V69.0786H165.674L164.958 68.0895C164.289 68.8831 163.423 69.2741 162.361 69.2741ZM184.18 69.0786H183.268C181.201 69.0786 180.174 68.0204 180.174 65.9042V61.8556H178.812V60.2224H180.174V58.3821H182.056V60.2224H184.18V61.8556H182.056V65.9272C182.056 66.9393 182.46 67.4454 183.268 67.4454H184.18V69.0786ZM191.049 69.0786H189.167V60.2224H191.049V69.0786ZM191.049 58.9457H189.167V57.0709H191.049V58.9457ZM198.53 69.0786H196.648V60.2224H197.733L198.437 61.2115C199.096 60.4179 199.973 60.0153 201.07 60.0153C202.005 60.0153 202.755 60.3144 203.309 60.9125C203.863 61.5105 204.152 62.3272 204.152 63.3738V69.0786H202.27V63.5463C202.27 62.9482 202.12 62.4997 201.82 62.1891C201.531 61.8786 201.139 61.7176 200.643 61.7176C199.857 61.7176 199.153 62.0971 198.53 62.8562V69.0786ZM213.307 72C212.187 72 211.287 71.747 210.617 71.2179C209.959 70.7003 209.624 69.9872 209.624 69.0786H211.506C211.506 69.4121 211.656 69.6997 211.979 69.9412C212.303 70.1827 212.741 70.2978 213.307 70.2978C214.508 70.2978 215.108 69.7457 215.108 68.63V67.3073C214.531 68.0204 213.699 68.377 212.614 68.377C211.645 68.377 210.871 68.101 210.282 67.5374C209.693 66.9738 209.393 66.1687 209.393 65.122V63.2703C209.393 62.2121 209.693 61.407 210.282 60.8549C210.883 60.2914 211.633 60.0153 212.545 60.0153C213.653 60.0153 214.531 60.4179 215.189 61.2115L215.893 60.2224H216.99V68.584C216.99 69.6882 216.666 70.5393 216.008 71.1259C215.362 71.7125 214.461 72 213.307 72ZM213.018 66.6748C213.757 66.6748 214.461 66.3067 215.108 65.5706V62.8217C214.461 62.0856 213.757 61.7176 213.018 61.7176C212.499 61.7176 212.072 61.8671 211.76 62.1661C211.437 62.4767 211.275 62.8677 211.275 63.3738V65.0185C211.275 65.5246 211.437 65.9272 211.76 66.2262C212.072 66.5252 212.499 66.6748 213.018 66.6748ZM126.999 65.9042V63.3853C126.999 62.8907 126.826 62.4882 126.491 62.1776C126.157 61.8786 125.683 61.7176 125.083 61.7176C124.483 61.7176 124.009 61.8786 123.675 62.1776C123.34 62.4882 123.167 62.8907 123.167 63.3853V65.9042C123.167 66.4102 123.34 66.8128 123.675 67.1118C124.009 67.4224 124.483 67.5719 125.083 67.5719C125.683 67.5719 126.157 67.4224 126.491 67.1118C126.826 66.8128 126.999 66.4102 126.999 65.9042ZM121.285 65.9962V63.3048C121.285 62.3157 121.62 61.522 122.289 60.924C122.959 60.3144 123.882 60.0153 125.083 60.0153C126.284 60.0153 127.207 60.3144 127.877 60.924C128.546 61.522 128.881 62.3157 128.881 63.3048V65.9962C128.881 66.9853 128.546 67.7789 127.877 68.377C127.207 68.9751 126.284 69.2741 125.083 69.2741C123.882 69.2741 122.959 68.9751 122.289 68.377C121.62 67.7789 121.285 66.9853 121.285 65.9962ZM174.24 69.0786H172.358V57.0709H174.24V69.0786Z" fill="white"/>
<path fill-rule="evenodd" clip-rule="evenodd" d="M16.2049 30.5137C13.1225 30.5137 10.3518 29.8697 7.89278 28.57C5.44533 27.2703 3.51738 25.453 2.10893 23.1412C0.712034 20.8179 0.0078125 18.1955 0.0078125 15.2626C0.0078125 12.3182 0.712034 9.69585 2.10893 7.37252C3.51738 5.0607 5.44533 3.24345 7.89278 1.94377C10.3518 0.64409 13.1225 0 16.2049 0C18.8948 0 21.3307 0.471566 23.4896 1.4262C25.6484 2.38083 27.4378 3.74952 28.8693 5.53227L23.5704 10.3169C21.6655 8.01661 19.345 6.87796 16.6321 6.87796C15.0274 6.87796 13.6074 7.223 12.3605 7.9246C11.1137 8.6262 10.144 9.60384 9.45131 10.8805C8.77017 12.1457 8.42384 13.6064 8.42384 15.2626C8.42384 16.9074 8.77017 18.3681 9.45131 19.6332C10.144 20.9099 11.1137 21.899 12.3605 22.5891C13.6074 23.2907 15.0274 23.6358 16.6321 23.6358C19.345 23.6358 21.6655 22.4971 23.5704 20.2083L28.8693 24.9815C27.4378 26.7757 25.6484 28.1444 23.4896 29.0875C21.3307 30.0422 18.8948 30.5137 16.2049 30.5137ZM46.7981 30.5137C43.6811 30.5137 40.8873 29.8581 38.4052 28.547C35.9231 27.2358 33.9721 25.4185 32.5521 23.0952C31.1321 20.7719 30.4279 18.161 30.4279 15.2626C30.4279 12.3527 31.1321 9.74185 32.5521 7.41853C33.9721 5.09521 35.9231 3.27796 38.4052 1.96677C40.8873 0.655591 43.6811 0 46.7981 0C49.9036 0 52.709 0.655591 55.1911 1.96677C57.6732 3.27796 59.6242 5.09521 61.0326 7.41853C62.4526 9.74185 63.1569 12.3527 63.1569 15.2626C63.1569 18.161 62.4526 20.7719 61.0326 23.0952C59.6242 25.4185 57.6732 27.2358 55.1911 28.547C52.709 29.8581 49.9036 30.5137 46.7981 30.5137ZM46.7981 23.6358C48.2874 23.6358 49.6266 23.2907 50.8387 22.5891C52.0394 21.899 52.9976 20.9099 53.6903 19.6332C54.3945 18.3681 54.7524 16.9074 54.7524 15.2626C54.7524 13.6064 54.3945 12.1457 53.6903 10.8805C52.9976 9.60384 52.0394 8.6262 50.8387 7.9246C49.6266 7.223 48.2874 6.87796 46.7981 6.87796C45.3089 6.87796 43.9582 7.223 42.7575 7.9246C41.5453 8.6262 40.5987 9.60384 39.8945 10.8805C39.1902 12.1457 38.8439 13.6064 38.8439 15.2626C38.8439 16.9074 39.1902 18.3681 39.8945 19.6332C40.5987 20.9099 41.5453 21.899 42.7575 22.5891C43.9582 23.2907 45.3089 23.6358 46.7981 23.6358ZM95.5626 0.586582V29.9272H88.7051L75.7058 14.2965V29.9272H67.5438V0.586582H74.4013L87.4005 16.2173V0.586582H95.5626ZM111.806 30.5137C109.416 30.5137 107.107 30.2262 104.856 29.6396C102.616 29.053 100.792 28.2709 99.3839 27.2933L102.12 21.1629C103.448 22.0371 104.971 22.7387 106.715 23.2677C108.446 23.7968 110.155 24.0613 111.84 24.0613C115.038 24.0613 116.643 23.2677 116.643 21.669C116.643 20.8294 116.181 20.2083 115.269 19.8058C114.357 19.4032 112.891 18.9776 110.871 18.5291C108.654 18.0575 106.807 17.5399 105.318 16.9994C103.84 16.4473 102.559 15.5847 101.497 14.377C100.423 13.1808 99.8918 11.5591 99.8918 9.51182C99.8918 7.72907 100.388 6.10735 101.37 4.66965C102.351 3.23195 103.817 2.09329 105.768 1.25367C107.708 0.414058 110.109 0 112.937 0C114.877 0 116.782 0.21853 118.663 0.64409C120.534 1.08115 122.196 1.71374 123.628 2.55335L121.053 8.71821C118.248 7.2115 115.535 6.4524 112.891 6.4524C111.24 6.4524 110.028 6.70543 109.278 7.1885C108.516 7.68307 108.146 8.31566 108.146 9.09776C108.146 9.87987 108.585 10.4665 109.485 10.8575C110.386 11.2486 111.829 11.6511 113.826 12.0767C116.066 12.5482 117.924 13.0543 119.391 13.6064C120.868 14.147 122.15 15.0096 123.223 16.2058C124.309 17.3904 124.84 19.0006 124.84 21.0479C124.84 22.8077 124.355 24.3949 123.374 25.8211C122.392 27.2473 120.915 28.3859 118.952 29.2371C116.989 30.0882 114.611 30.5137 111.806 30.5137ZM152.316 23.5208V29.9272H128.673V0.586582H151.773V7.00447H136.915V11.9502H150.007V18.1495H136.915V23.5208H152.316ZM184.964 0.586582V29.9272H178.107L165.107 14.2965V29.9272H156.945V0.586582H163.803L176.802 16.2173V0.586582H184.964ZM201.207 30.5137C198.829 30.5137 196.509 30.2262 194.269 29.6396C192.018 29.053 190.205 28.2709 188.797 27.2933L191.533 21.1629C192.849 22.0371 194.384 22.7387 196.116 23.2677C197.859 23.7968 199.568 24.0613 201.254 24.0613C204.451 24.0613 206.045 23.2677 206.045 21.669C206.045 20.8294 205.594 20.2083 204.682 19.8058C203.77 19.4032 202.304 18.9776 200.284 18.5291C198.067 18.0575 196.22 17.5399 194.731 16.9994C193.242 16.4473 191.972 15.5847 190.898 14.377C189.836 13.1808 189.305 11.5591 189.305 9.51182C189.305 7.72907 189.79 6.10735 190.771 4.66965C191.752 3.23195 193.218 2.09329 195.17 1.25367C197.121 0.414058 199.51 0 202.35 0C204.278 0 206.183 0.21853 208.065 0.64409C209.947 1.08115 211.598 1.71374 213.029 2.55335L210.466 8.71821C207.661 7.2115 204.936 6.4524 202.304 6.4524C200.653 6.4524 199.441 6.70543 198.691 7.1885C197.929 7.68307 197.548 8.31566 197.548 9.09776C197.548 9.87987 197.998 10.4665 198.898 10.8575C199.799 11.2486 201.242 11.6511 203.228 12.0767C205.479 12.5482 207.326 13.0543 208.804 13.6064C210.281 14.147 211.551 15.0096 212.637 16.2058C213.71 17.3904 214.253 19.0006 214.253 21.0479C214.253 22.8077 213.768 24.3949 212.787 25.8211C211.794 27.2473 210.328 28.3859 208.365 29.2371C206.402 30.0882 204.013 30.5137 201.207 30.5137ZM221.618 10.7425C224.031 10.7425 225.994 12.6978 225.994 15.1016C225.994 17.5169 224.031 19.4607 221.618 19.4607C219.194 19.4607 217.231 17.5169 217.231 15.1016C217.231 12.6978 219.194 10.7425 221.618 10.7425Z" fill="white"/>
<path fill-rule="evenodd" clip-rule="evenodd" d="M28.6379 69.0786L28.5455 53.5285L20.9722 66.1802H17.278L9.73932 53.9425V69.0786H2.03906V39.738H8.89656L19.2521 56.6684L29.3536 39.738H36.2111L36.2919 69.0786H28.6379ZM65.8346 62.6607V69.0786H42.1797V39.738H65.2805V46.1444H50.4341V51.0901H63.5141V57.301H50.4341V62.6607H65.8346ZM70.4525 39.738H84.3868C87.6077 39.738 90.4708 40.3361 92.9644 41.5323C95.4696 42.74 97.3976 44.4422 98.7714 46.6505C100.145 48.8588 100.838 51.4467 100.838 54.4026C100.838 57.37 100.145 59.9463 98.7714 62.1547C97.3976 64.363 95.4696 66.0767 92.9644 67.2729C90.4708 68.469 87.6077 69.0786 84.3868 69.0786H70.4525V39.738ZM84.052 62.4537C86.5687 62.4537 88.6006 61.7406 90.1245 60.3144C91.6599 58.8882 92.4219 56.9214 92.4219 54.4026C92.4219 51.8837 91.6599 49.917 90.1245 48.4908C88.6006 47.0646 86.5687 46.3515 84.052 46.3515H78.7877V62.4537H84.052Z" fill="white"/>
</g>
<defs>
<clipPath id="clip0_479_1213">
<rect width="226" height="72" fill="white"/>
</clipPath>
</defs>
</svg>
