<svg width="101" height="70" viewBox="0 0 101 70" fill="none" xmlns="http://www.w3.org/2000/svg">
<path fill-rule="evenodd" clip-rule="evenodd" d="M0 23.1582H39.4502L44.5848 30.5662L50.4037 23.1582H91.2258V47.5333H52.5262L43.5577 36.0097L34.8633 47.5333H0V23.1582Z" fill="black"/>
<path d="M17.4685 37.581H10.9139V31.8521H9.51953V38.8383H17.4685V37.581ZM32.2791 31.8521H30.8843V37.581H23.9114V31.8521H22.5171V37.581C22.5171 37.581 22.5171 38.8383 23.7723 38.8383H31.0239C32.3208 38.8383 32.2791 37.581 32.2791 37.581V31.8521ZM63.9637 31.8521H56.7121C55.4569 31.8521 55.4569 33.1093 55.4569 33.1093V38.8383H56.8512V36.6026H63.8242V38.8383H65.2189V33.1093C65.2189 33.1093 65.2189 31.8521 63.9637 31.8521ZM56.8512 33.1093H63.8242V35.345H56.8512V33.1093ZM81.7025 38.8383L80.0291 36.6026C81.4238 36.6026 81.4238 35.345 81.4238 35.345V33.1093C81.4238 33.1093 81.4238 31.8521 80.0291 31.8521H71.6618V38.8383H73.0561V36.6026H78.4952L80.1686 38.8383H81.7025ZM80.0291 35.345H73.0561V33.1093H80.0291V35.345Z" fill="#FEFEFE"/>
<path d="M100.069 45.7725C100.069 46.0712 100.027 46.3446 99.9448 46.5934C99.8617 46.8422 99.6943 47.0433 99.4418 47.1967C99.1896 47.35 98.8068 47.4269 98.2936 47.4269H94.135C93.6881 47.4269 93.3465 47.3441 93.1108 47.1781C92.8747 47.0121 92.7137 46.7865 92.6264 46.5C92.5395 46.214 92.4961 45.8845 92.4961 45.5115C92.4961 45.138 92.5416 44.8085 92.6327 44.5225C92.7238 44.2365 92.8853 44.0104 93.1167 43.8444C93.3486 43.6788 93.6881 43.596 94.135 43.596H95.1031V44.5288H94.1101C93.8205 44.5288 93.6033 44.5702 93.4583 44.653C93.3137 44.7358 93.2184 44.8499 93.1728 44.9952C93.1273 45.1401 93.1045 45.3083 93.1045 45.4988C93.1045 45.6897 93.1273 45.8575 93.1728 46.0028C93.2184 46.1477 93.3137 46.2618 93.4583 46.3446C93.6033 46.4278 93.8205 46.4692 94.1101 46.4692H98.48C98.7777 46.4692 98.9991 46.4278 99.1441 46.3446C99.2887 46.2618 99.384 46.1477 99.4296 46.0028C99.4751 45.8575 99.4979 45.6897 99.4979 45.4988C99.4979 45.217 99.411 44.9846 99.2373 44.8021C99.0631 44.6201 98.811 44.5288 98.48 44.5288H96.9777V45.3868H96.4068V43.596H99.9321V44.3172L99.2617 44.367C99.3115 44.3919 99.3591 44.419 99.4047 44.4477C99.4502 44.4768 99.4894 44.5039 99.5227 44.5288C99.68 44.6365 99.8103 44.7899 99.9136 44.9889C100.017 45.1879 100.069 45.4489 100.069 45.7725ZM99.9321 42.3269H92.5956V39.9142C92.5956 39.4744 92.6968 39.1284 92.8996 38.8754C93.1024 38.6227 93.4106 38.496 93.8247 38.496H94.9914C95.4134 38.496 95.7444 38.6164 95.9847 38.8568C96.2247 39.0972 96.3528 39.433 96.3693 39.8644C96.3862 39.5906 96.4772 39.3895 96.6425 39.2611C96.8082 39.1326 97.0646 39.0186 97.4124 38.9189L99.9321 38.1851V39.2298L97.4744 39.8644C97.3251 39.9058 97.1847 39.9556 97.0523 40.0135C96.9199 40.0718 96.8141 40.1419 96.7357 40.2251C96.6568 40.3079 96.6176 40.4199 96.6176 40.561V41.332H99.9321V42.3269ZM95.9472 41.332V40.362C95.9472 40.0549 95.873 39.8251 95.7238 39.6717C95.5749 39.5179 95.3186 39.4415 94.9543 39.4415H93.9858C93.6881 39.4415 93.473 39.5141 93.3402 39.659C93.2078 39.8044 93.1416 39.9805 93.1416 40.1875V41.332H95.9472ZM100.081 35.3617C100.081 35.7348 100.038 36.0622 99.9507 36.3444C99.8638 36.6262 99.6838 36.8501 99.411 37.0161C99.1378 37.1817 98.7279 37.2645 98.1819 37.2645H94.135C93.6796 37.2645 93.3343 37.1817 93.0982 37.0161C92.8625 36.8501 92.7031 36.624 92.6205 36.338C92.5374 36.052 92.4961 35.7225 92.4961 35.349C92.4961 34.976 92.5395 34.6465 92.6264 34.3605C92.7137 34.074 92.8726 33.8484 93.1045 33.6824C93.3364 33.5168 93.6796 33.4336 94.135 33.4336H98.1819C98.7364 33.4336 99.1483 33.5168 99.4169 33.6824C99.6859 33.8484 99.8638 34.0761 99.9507 34.3664C100.038 34.6566 100.081 34.9883 100.081 35.3617ZM99.4979 35.3617C99.4979 35.1708 99.473 35.003 99.4232 34.8577C99.3735 34.7128 99.2765 34.5987 99.1315 34.5159C98.9868 34.4327 98.7697 34.3913 98.48 34.3913H94.1101C93.8289 34.3913 93.6156 34.4327 93.4709 34.5159C93.3259 34.5987 93.2285 34.7128 93.1792 34.8577C93.1294 35.003 93.1045 35.1708 93.1045 35.3617C93.1045 35.5522 93.1294 35.7183 93.1792 35.859C93.2285 36.0001 93.3259 36.112 93.4709 36.1948C93.6156 36.278 93.8289 36.3194 94.1101 36.3194H98.48C98.7697 36.3194 98.9868 36.278 99.1315 36.1948C99.2765 36.112 99.3735 36.0001 99.4232 35.859C99.473 35.7183 99.4979 35.5522 99.4979 35.3617ZM100.081 30.2744C100.081 30.5397 100.061 30.7885 100.019 31.0205C99.9777 31.2528 99.8972 31.4539 99.777 31.6237C99.6572 31.794 99.4793 31.9288 99.2432 32.028C99.0075 32.1277 98.6908 32.1776 98.2936 32.1776H92.5956V31.2072H98.5171C98.7819 31.2072 98.9826 31.1637 99.1192 31.0766C99.2558 30.9896 99.3486 30.8755 99.3984 30.7344C99.4481 30.5938 99.473 30.44 99.473 30.2744C99.473 30.1083 99.4481 29.9529 99.3984 29.808C99.3486 29.6626 99.2558 29.5469 99.1192 29.4594C98.9826 29.3724 98.7819 29.3289 98.5171 29.3289H92.5956V28.3838H98.2936C98.6824 28.3838 98.9969 28.4316 99.2373 28.5266C99.4772 28.6221 99.6572 28.7548 99.777 28.9246C99.8972 29.0949 99.9777 29.2959 100.019 29.5279C100.061 29.7602 100.081 30.0091 100.081 30.2744ZM99.9321 27.0028H92.5956V24.6273C92.5956 24.1879 92.6968 23.8415 92.8996 23.5888C93.1024 23.3358 93.4106 23.2095 93.8247 23.2095H95.1528C95.4425 23.2095 95.7157 23.2488 95.9721 23.3273C96.2289 23.4063 96.4355 23.5576 96.5928 23.7815C96.75 24.0054 96.8289 24.3286 96.8289 24.7515V25.9956H99.9321V27.0028ZM96.2702 25.9956V25.0628C96.2702 24.7641 96.1707 24.5402 95.9721 24.3911C95.7735 24.2416 95.459 24.1672 95.0289 24.1672H94.2092C93.8369 24.1672 93.5658 24.2356 93.3963 24.3721C93.2268 24.509 93.1416 24.6813 93.1416 24.8884V25.9956H96.2702Z" fill="#6B8C9E"/>
<mask id="mask0_479_1128" style="mask-type:alpha" maskUnits="userSpaceOnUse" x="18" y="0" width="50" height="70">
<path fill-rule="evenodd" clip-rule="evenodd" d="M43.664 38.3274L18.5977 69.9088L40.8007 34.0634L29.2725 16.8978H36.4984L44.6717 29.0682L67.7428 0L47.3073 32.9925L61.232 53.7266H54.0061L43.664 38.3274Z" fill="#62D8D8"/>
</mask>
<g mask="url(#mask0_479_1128)">
<path d="M11.3789 -3.10938H72.3061V75.1079H11.3789V-3.10938Z" fill="#62D6D6"/>
<path fill-rule="evenodd" clip-rule="evenodd" d="M36.3906 81.4143L10.2188 64.4709L26.4979 39.2256L52.6693 56.169L36.3906 81.4143Z" fill="url(#paint0_linear_479_1128)"/>
<path fill-rule="evenodd" clip-rule="evenodd" d="M57.9479 -9.95675L82.5825 9.15294L64.2136 32.921L39.5794 13.8113L57.9479 -9.95675Z" fill="url(#paint1_linear_479_1128)"/>
<path fill-rule="evenodd" clip-rule="evenodd" d="M79.544 48.1205L60.8545 73.0754L36.7786 55.1118L55.4681 30.1574L79.544 48.1205Z" fill="url(#paint2_linear_479_1128)"/>
<path fill-rule="evenodd" clip-rule="evenodd" d="M7.00141 15.9877L31.2781 -3.57463L50.1681 19.7814L25.8916 39.3433L7.00141 15.9877Z" fill="url(#paint3_linear_479_1128)"/>
</g>
<defs>
<linearGradient id="paint0_linear_479_1128" x1="23.3049" y1="72.9426" x2="39.6291" y2="47.7268" gradientUnits="userSpaceOnUse">
<stop stop-color="#2B2A29"/>
<stop offset="0.164706" stop-color="#252325"/>
<stop offset="0.258824" stop-color="#1F1B20"/>
<stop offset="1" stop-color="#62D8D8"/>
</linearGradient>
<linearGradient id="paint1_linear_479_1128" x1="70.265" y1="-0.401923" x2="51.8536" y2="23.3329" gradientUnits="userSpaceOnUse">
<stop stop-color="#2B2A29"/>
<stop offset="0.164706" stop-color="#252325"/>
<stop offset="0.258824" stop-color="#1F1B20"/>
<stop offset="1" stop-color="#62D8D8"/>
</linearGradient>
<linearGradient id="paint2_linear_479_1128" x1="70.1992" y1="60.5977" x2="46.1559" y2="42.5911" gradientUnits="userSpaceOnUse">
<stop stop-color="#2B2A29"/>
<stop offset="0.164706" stop-color="#252325"/>
<stop offset="0.258824" stop-color="#1F1B20"/>
<stop offset="1" stop-color="#62D8D8"/>
</linearGradient>
<linearGradient id="paint3_linear_479_1128" x1="19.1397" y1="6.20675" x2="37.9876" y2="29.5964" gradientUnits="userSpaceOnUse">
<stop stop-color="#2B2A29"/>
<stop offset="0.164706" stop-color="#252325"/>
<stop offset="0.258824" stop-color="#1F1B20"/>
<stop offset="1" stop-color="#62D8D8"/>
</linearGradient>
</defs>
</svg>
