<svg width="149" height="123" viewBox="0 0 149 123" fill="none" xmlns="http://www.w3.org/2000/svg">
<path d="M54.5103 13.3945L48.3791 7.33535C54.1447 6.57598 63.3978 5.8957 70.0002 5.96426C78.1301 5.87988 90.3117 6.93457 95.0015 7.87148C103.501 9.52383 111.296 17.0402 113.139 25.36V25.4039C114.369 31.3506 114.981 37.4977 114.991 44.1949C115.002 50.8922 114.374 57.0568 113.139 63.0035V63.0457C112.656 65.1511 111.845 67.1678 110.737 69.0223L80.2236 38.8371C82.1713 37.6066 84.5127 37.0424 86.847 37.0336C90.0744 37.0477 93.3211 38.1146 95.5078 40.5492C99.6756 45.2145 103.866 50.4387 107.624 55.5223C108.092 51.7647 108.325 47.9815 108.32 44.1949C108.31 37.9758 107.753 32.2752 106.614 26.7926C105.345 21.1113 99.5666 15.5707 93.7236 14.4387H93.7043C89.9004 13.6775 78.0281 12.5701 70.0406 12.658H69.9668C65.342 12.5947 59.4181 12.9445 54.5103 13.3945ZM114.007 81.6645C114.319 81.9731 114.566 82.3401 114.736 82.7445C114.906 83.1489 114.995 83.5828 114.997 84.0213C114.999 84.4599 114.914 84.8947 114.749 85.3007C114.583 85.7067 114.339 86.0761 114.03 86.3877C113.721 86.6993 113.354 86.9471 112.95 87.1169C112.545 87.2867 112.112 87.3752 111.673 87.3773C111.234 87.3795 110.8 87.2952 110.394 87.1293C109.988 86.9634 109.618 86.7192 109.307 86.4105L101.113 78.3018C99.2042 79.3507 97.1462 80.1023 95.0103 80.5307C90.4928 81.4307 79.0582 82.4414 70.9547 82.4414H70.0002C61.8685 82.5293 49.6869 81.4711 44.9971 80.5342C36.498 78.8766 28.7039 71.3672 26.8617 63.0422L26.8512 62.9982C25.6172 57.0516 25.0125 50.9045 25.0002 44.2072C24.9879 37.51 25.6172 31.34 26.8529 25.3986L26.8617 25.3564C27.9164 20.5805 30.9293 16.084 34.9107 12.8021L30.3931 8.33555C30.0719 8.02924 29.815 7.66197 29.6373 7.25521C29.4597 6.84845 29.3649 6.41036 29.3585 5.96654C29.3521 5.52273 29.4342 5.08209 29.6001 4.67039C29.766 4.25868 30.0122 3.88417 30.3245 3.56874C30.6368 3.25331 31.0088 3.00329 31.4188 2.83329C31.8288 2.66329 32.2686 2.57673 32.7125 2.57865C33.1564 2.58058 33.5954 2.67097 34.0039 2.84452C34.4124 3.01808 34.7823 3.27132 35.0918 3.58945L114.007 81.6645ZM71.264 48.774L57.5074 35.1563C57.0522 36.376 56.2987 37.4623 55.3158 38.3161C54.3328 39.1698 53.1517 39.7638 51.8803 40.0438C50.6088 40.3239 49.2874 40.281 48.0368 39.9191C46.7861 39.5572 45.646 38.8879 44.7205 37.9722C43.795 37.0565 43.1136 35.9236 42.7384 34.6769C42.3632 33.4302 42.3062 32.1094 42.5727 30.835C42.8391 29.5606 43.4205 28.3732 44.2637 27.3813C45.1069 26.3893 46.1851 25.6243 47.4 25.1561L39.7025 17.5465C36.6017 19.9336 34.1619 23.3279 33.3902 26.7838C32.2529 32.2664 31.6939 37.9688 31.6799 44.2072C31.6658 50.4457 32.2476 56.127 33.3867 61.6184C33.5361 62.2717 33.7365 62.9124 33.9861 63.5344C36.9744 59.3982 40.4197 55.0582 43.8404 51.2297C45.4471 49.4455 47.8306 48.6615 50.1984 48.651C52.5662 48.6404 54.9445 49.4455 56.5582 51.2297C58.8433 53.782 61.1285 56.5629 63.2871 59.3578C65.7392 55.8984 68.4428 52.2967 71.264 48.774Z" fill="#D9E3EF"/>
<path d="M1.488 119V110.52H3.024V114.12H7.856V110.52H9.392V119H7.856V115.448H3.024V119H1.488ZM16.1546 119.096C15.248 119.096 14.448 118.909 13.7546 118.536C13.072 118.163 12.5386 117.651 12.1546 117C11.7813 116.349 11.5946 115.603 11.5946 114.76C11.5946 113.917 11.776 113.171 12.1386 112.52C12.512 111.869 13.0186 111.363 13.6586 111C14.3093 110.627 15.04 110.44 15.8506 110.44C16.672 110.44 17.3973 110.621 18.0266 110.984C18.656 111.347 19.1466 111.859 19.4986 112.52C19.8613 113.171 20.0426 113.933 20.0426 114.808C20.0426 114.872 20.0373 114.947 20.0266 115.032C20.0266 115.117 20.0213 115.197 20.0106 115.272H12.7946V114.168H19.2106L18.5866 114.552C18.5973 114.008 18.4853 113.523 18.2506 113.096C18.016 112.669 17.6906 112.339 17.2746 112.104C16.8693 111.859 16.3946 111.736 15.8506 111.736C15.3173 111.736 14.8426 111.859 14.4266 112.104C14.0106 112.339 13.6853 112.675 13.4506 113.112C13.216 113.539 13.0986 114.029 13.0986 114.584V114.84C13.0986 115.405 13.2266 115.912 13.4826 116.36C13.7493 116.797 14.1173 117.139 14.5866 117.384C15.056 117.629 15.5946 117.752 16.2026 117.752C16.704 117.752 17.1573 117.667 17.5626 117.496C17.9786 117.325 18.3413 117.069 18.6506 116.728L19.4986 117.72C19.1146 118.168 18.6346 118.509 18.0586 118.744C17.4933 118.979 16.8586 119.096 16.1546 119.096ZM23.7461 119V111.464L24.1301 111.864H20.6421V110.52H28.3861V111.864H24.9141L25.2821 111.464V119H23.7461ZM34.2536 119V110.52H35.7896V116.696L40.9896 110.52H42.3816V119H40.8456V112.824L35.6616 119H34.2536ZM47.7024 119.112C47.0624 119.112 46.433 119.032 45.8144 118.872C45.2064 118.701 44.6624 118.461 44.1824 118.152L44.6464 116.984C45.0517 117.24 45.5157 117.443 46.0384 117.592C46.561 117.731 47.089 117.8 47.6224 117.8C48.113 117.8 48.5344 117.741 48.8864 117.624C49.249 117.507 49.5264 117.347 49.7184 117.144C49.9104 116.931 50.0064 116.685 50.0064 116.408C50.0064 116.013 49.8304 115.709 49.4784 115.496C49.1264 115.283 48.6357 115.176 48.0064 115.176H46.4704V114.072H47.9104C48.2837 114.072 48.609 114.029 48.8864 113.944C49.1637 113.859 49.377 113.731 49.5264 113.56C49.6864 113.379 49.7664 113.171 49.7664 112.936C49.7664 112.68 49.6757 112.461 49.4944 112.28C49.313 112.099 49.057 111.96 48.7264 111.864C48.4064 111.768 48.0277 111.72 47.5904 111.72C47.1637 111.731 46.7264 111.789 46.2784 111.896C45.841 112.003 45.393 112.168 44.9344 112.392L44.5184 111.192C45.0304 110.947 45.5317 110.76 46.0224 110.632C46.5237 110.493 47.0197 110.419 47.5104 110.408C48.2464 110.387 48.9024 110.472 49.4784 110.664C50.0544 110.845 50.5077 111.112 50.8384 111.464C51.1797 111.816 51.3504 112.232 51.3504 112.712C51.3504 113.117 51.2224 113.48 50.9664 113.8C50.7104 114.109 50.369 114.355 49.9424 114.536C49.5157 114.717 49.025 114.808 48.4704 114.808L48.5344 114.44C49.4837 114.44 50.2304 114.627 50.7744 115C51.3184 115.373 51.5904 115.88 51.5904 116.52C51.5904 117.032 51.4197 117.485 51.0784 117.88C50.737 118.264 50.273 118.568 49.6864 118.792C49.1104 119.005 48.449 119.112 47.7024 119.112ZM57.5575 119.096C56.7042 119.096 55.9468 118.909 55.2855 118.536C54.6242 118.163 54.1015 117.651 53.7175 117C53.3335 116.339 53.1415 115.592 53.1415 114.76C53.1415 113.917 53.3335 113.171 53.7175 112.52C54.1015 111.869 54.6242 111.363 55.2855 111C55.9468 110.627 56.7042 110.44 57.5575 110.44C58.4002 110.44 59.1522 110.627 59.8135 111C60.4855 111.363 61.0082 111.869 61.3815 112.52C61.7655 113.16 61.9575 113.907 61.9575 114.76C61.9575 115.603 61.7655 116.349 61.3815 117C61.0082 117.651 60.4855 118.163 59.8135 118.536C59.1522 118.909 58.4002 119.096 57.5575 119.096ZM57.5575 117.752C58.1015 117.752 58.5868 117.629 59.0135 117.384C59.4508 117.139 59.7922 116.792 60.0375 116.344C60.2828 115.885 60.4055 115.357 60.4055 114.76C60.4055 114.152 60.2828 113.629 60.0375 113.192C59.7922 112.744 59.4508 112.397 59.0135 112.152C58.5868 111.907 58.1015 111.784 57.5575 111.784C57.0135 111.784 56.5282 111.907 56.1015 112.152C55.6748 112.397 55.3335 112.744 55.0775 113.192C54.8215 113.629 54.6935 114.152 54.6935 114.76C54.6935 115.357 54.8215 115.885 55.0775 116.344C55.3335 116.792 55.6748 117.139 56.1015 117.384C56.5282 117.629 57.0135 117.752 57.5575 117.752ZM68.0955 119.128C67.3915 119.128 66.7675 119.016 66.2235 118.792C65.6902 118.568 65.2315 118.237 64.8475 117.8C64.4635 117.352 64.1702 116.792 63.9675 116.12C63.7755 115.437 63.6795 114.637 63.6795 113.72C63.6795 112.995 63.7435 112.344 63.8715 111.768C63.9995 111.192 64.1808 110.68 64.4155 110.232C64.6608 109.784 64.9595 109.395 65.3115 109.064C65.6742 108.733 66.0795 108.461 66.5275 108.248C66.9862 108.024 67.4875 107.853 68.0315 107.736L71.9035 106.872L72.1275 108.296L68.5595 109.064C68.3462 109.107 68.0902 109.171 67.7915 109.256C67.4928 109.341 67.1888 109.475 66.8795 109.656C66.5702 109.827 66.2822 110.067 66.0155 110.376C65.7488 110.685 65.5355 111.091 65.3755 111.592C65.2155 112.083 65.1355 112.691 65.1355 113.416C65.1355 113.619 65.1408 113.773 65.1515 113.88C65.1622 113.987 65.1728 114.093 65.1835 114.2C65.2048 114.307 65.2208 114.467 65.2315 114.68L64.5915 114.024C64.7622 113.437 65.0342 112.925 65.4075 112.488C65.7808 112.051 66.2288 111.715 66.7515 111.48C67.2848 111.235 67.8662 111.112 68.4955 111.112C69.2848 111.112 69.9835 111.283 70.5915 111.624C71.2102 111.965 71.6955 112.435 72.0475 113.032C72.3995 113.629 72.5755 114.312 72.5755 115.08C72.5755 115.859 72.3888 116.557 72.0155 117.176C71.6528 117.784 71.1355 118.264 70.4635 118.616C69.7915 118.957 69.0022 119.128 68.0955 119.128ZM68.2395 117.848C68.7835 117.848 69.2635 117.731 69.6795 117.496C70.0955 117.251 70.4208 116.925 70.6555 116.52C70.8902 116.104 71.0075 115.64 71.0075 115.128C71.0075 114.616 70.8902 114.163 70.6555 113.768C70.4208 113.373 70.0955 113.064 69.6795 112.84C69.2635 112.605 68.7728 112.488 68.2075 112.488C67.6742 112.488 67.1942 112.6 66.7675 112.824C66.3408 113.037 66.0102 113.341 65.7755 113.736C65.5408 114.12 65.4235 114.568 65.4235 115.08C65.4235 115.592 65.5408 116.061 65.7755 116.488C66.0208 116.904 66.3515 117.235 66.7675 117.48C67.1942 117.725 67.6848 117.848 68.2395 117.848ZM79.2653 119.096C78.5613 119.096 77.9159 118.936 77.3293 118.616C76.7533 118.285 76.2893 117.8 75.9373 117.16C75.5959 116.52 75.4253 115.72 75.4253 114.76C75.4253 113.8 75.5906 113 75.9213 112.36C76.2626 111.72 76.7213 111.24 77.2973 110.92C77.8839 110.6 78.5399 110.44 79.2653 110.44C80.0973 110.44 80.8333 110.621 81.4733 110.984C82.1133 111.347 82.6199 111.853 82.9933 112.504C83.3666 113.144 83.5533 113.896 83.5533 114.76C83.5533 115.624 83.3666 116.381 82.9933 117.032C82.6199 117.683 82.1133 118.189 81.4733 118.552C80.8333 118.915 80.0973 119.096 79.2653 119.096ZM74.7693 122.104V110.52H76.2413V112.808L76.1453 114.776L76.3053 116.744V122.104H74.7693ZM79.1373 117.752C79.6813 117.752 80.1666 117.629 80.5933 117.384C81.0306 117.139 81.3719 116.792 81.6173 116.344C81.8733 115.885 82.0013 115.357 82.0013 114.76C82.0013 114.152 81.8733 113.629 81.6173 113.192C81.3719 112.744 81.0306 112.397 80.5933 112.152C80.1666 111.907 79.6813 111.784 79.1373 111.784C78.6039 111.784 78.1186 111.907 77.6813 112.152C77.2546 112.397 76.9133 112.744 76.6573 113.192C76.4119 113.629 76.2893 114.152 76.2893 114.76C76.2893 115.357 76.4119 115.885 76.6573 116.344C76.9133 116.792 77.2546 117.139 77.6813 117.384C78.1186 117.629 78.6039 117.752 79.1373 117.752ZM90.9068 119V117.208L90.8268 116.872V113.816C90.8268 113.165 90.6348 112.664 90.2508 112.312C89.8774 111.949 89.3121 111.768 88.5548 111.768C88.0534 111.768 87.5628 111.853 87.0828 112.024C86.6028 112.184 86.1974 112.403 85.8668 112.68L85.2268 111.528C85.6641 111.176 86.1868 110.909 86.7948 110.728C87.4134 110.536 88.0588 110.44 88.7308 110.44C89.8934 110.44 90.7894 110.723 91.4188 111.288C92.0481 111.853 92.3628 112.717 92.3628 113.88V119H90.9068ZM88.1228 119.096C87.4934 119.096 86.9388 118.989 86.4588 118.776C85.9894 118.563 85.6268 118.269 85.3708 117.896C85.1148 117.512 84.9868 117.08 84.9868 116.6C84.9868 116.141 85.0934 115.725 85.3068 115.352C85.5308 114.979 85.8881 114.68 86.3788 114.456C86.8801 114.232 87.5521 114.12 88.3948 114.12H91.0828V115.224H88.4588C87.6908 115.224 87.1734 115.352 86.9068 115.608C86.6401 115.864 86.5068 116.173 86.5068 116.536C86.5068 116.952 86.6721 117.288 87.0028 117.544C87.3334 117.789 87.7921 117.912 88.3788 117.912C88.9548 117.912 89.4561 117.784 89.8828 117.528C90.3201 117.272 90.6348 116.899 90.8268 116.408L91.1308 117.464C90.9281 117.965 90.5708 118.365 90.0588 118.664C89.5468 118.952 88.9014 119.096 88.1228 119.096ZM105.193 119L102.489 114.872L103.753 114.104L107.017 119H105.193ZM100.729 115.416V114.104H103.481V115.416H100.729ZM103.897 114.936L102.441 114.744L105.145 110.52H106.793L103.897 114.936ZM95.6726 119H93.8486L97.0966 114.104L98.3606 114.872L95.6726 119ZM101.193 119H99.6566V110.52H101.193V119ZM100.121 115.416H97.3846V114.104H100.121V115.416ZM96.9686 114.936L94.0726 110.52H95.7046L98.4086 114.744L96.9686 114.936ZM112.202 119.096C111.295 119.096 110.495 118.909 109.802 118.536C109.119 118.163 108.586 117.651 108.202 117C107.828 116.349 107.642 115.603 107.642 114.76C107.642 113.917 107.823 113.171 108.186 112.52C108.559 111.869 109.066 111.363 109.706 111C110.356 110.627 111.087 110.44 111.898 110.44C112.719 110.44 113.444 110.621 114.074 110.984C114.703 111.347 115.194 111.859 115.546 112.52C115.908 113.171 116.09 113.933 116.09 114.808C116.09 114.872 116.084 114.947 116.074 115.032C116.074 115.117 116.068 115.197 116.058 115.272H108.842V114.168H115.258L114.634 114.552C114.644 114.008 114.532 113.523 114.298 113.096C114.063 112.669 113.738 112.339 113.322 112.104C112.916 111.859 112.442 111.736 111.898 111.736C111.364 111.736 110.89 111.859 110.474 112.104C110.058 112.339 109.732 112.675 109.498 113.112C109.263 113.539 109.146 114.029 109.146 114.584V114.84C109.146 115.405 109.274 115.912 109.53 116.36C109.796 116.797 110.164 117.139 110.634 117.384C111.103 117.629 111.642 117.752 112.25 117.752C112.751 117.752 113.204 117.667 113.61 117.496C114.026 117.325 114.388 117.069 114.698 116.728L115.546 117.72C115.162 118.168 114.682 118.509 114.106 118.744C113.54 118.979 112.906 119.096 112.202 119.096ZM118.472 119V110.52H120.008V114.12H124.84V110.52H126.376V119H124.84V115.448H120.008V119H118.472ZM129.363 119V110.52H130.899V116.696L136.099 110.52H137.491V119H135.955V112.824L130.771 119H129.363ZM145.896 119V116.024L146.136 116.312H143.432C142.302 116.312 141.416 116.072 140.776 115.592C140.147 115.112 139.832 114.413 139.832 113.496C139.832 112.515 140.168 111.773 140.84 111.272C141.523 110.771 142.43 110.52 143.56 110.52H147.272V119H145.896ZM139.752 119L142.056 115.752H143.64L141.4 119H139.752ZM145.896 115.544V111.432L146.136 111.864H143.608C142.904 111.864 142.36 111.997 141.976 112.264C141.592 112.52 141.4 112.947 141.4 113.544C141.4 114.653 142.115 115.208 143.544 115.208H146.136L145.896 115.544Z" fill="#C4D2E3"/>
</svg>
