<svg width="24" height="24" viewBox="0 0 24 24" fill="none" xmlns="http://www.w3.org/2000/svg">
<path d="M16.1381 13.4459C17.9919 13.8115 19.2495 14.7899 19.9319 16.3574C20.0412 16.6102 20.0182 16.916 19.8679 17.1784C19.3913 18.0124 18.8574 18.8151 18.2663 19.5791C18.0402 19.8728 17.6835 20.0331 17.3418 19.9942C14.2444 19.6409 11.0506 18.1337 8.45846 15.5415C5.8663 12.9494 4.35911 9.75561 4.00576 6.65819C3.96686 6.3163 4.12719 5.95975 4.42092 5.7339C5.18487 5.14274 5.98756 4.60868 6.82158 4.13222C7.08398 3.98182 7.38983 3.95874 7.64263 4.06805C9.21012 4.75049 10.1885 6.00809 10.5541 7.86189C10.6077 8.14012 10.5204 8.44463 10.3251 8.67991L8.96322 10.3127C8.69644 10.6309 8.64036 11.0631 8.82848 11.3868C9.7558 12.9826 11.0174 14.2442 12.6132 15.1717C12.9369 15.3596 13.3693 15.3036 13.6884 15.038L15.3202 13.6749C15.5554 13.4796 15.8599 13.3923 16.1381 13.4459Z" fill="#345882"/>
</svg>
