<svg width="24" height="24" viewBox="0 0 24 24" fill="none" xmlns="http://www.w3.org/2000/svg">
<path d="M12 2C16.418 2 20 6.003 20 10.5C20 14.962 17.4469 19.8118 13.4629 21.6738C13.005 21.8882 12.5056 22 12 22C11.4944 22 10.995 21.8882 10.5371 21.6738C6.55311 19.8118 4 14.962 4 10.5C4 6.003 7.582 2 12 2ZM12 7.5C11.337 7.5 10.7013 7.76358 10.2324 8.23242C9.76358 8.70126 9.5 9.33696 9.5 10C9.5 10.663 9.76358 11.2987 10.2324 11.7676C10.7013 12.2364 11.337 12.5 12 12.5C12.663 12.5 13.2987 12.2364 13.7676 11.7676C14.2364 11.2987 14.5 10.663 14.5 10C14.5 9.33696 14.2364 8.70126 13.7676 8.23242C13.2987 7.76358 12.663 7.5 12 7.5Z" fill="#345882"/>
</svg>
