<svg width="142" height="126" viewBox="0 0 142 126" fill="none" xmlns="http://www.w3.org/2000/svg">
<path d="M69.4732 33.3101C70.6868 33.3101 71.8506 33.7904 72.7088 34.6455C73.5669 35.5005 74.049 36.6602 74.049 37.8694V68.2645C74.049 69.4737 73.5669 70.6333 72.7088 71.4884C71.8506 72.3434 70.6868 72.8238 69.4732 72.8238C68.2596 72.8238 67.0957 72.3434 66.2376 71.4884C65.3795 70.6333 64.8974 69.4737 64.8974 68.2645V37.8694C64.8974 36.6602 65.3795 35.5005 66.2376 34.6455C67.0957 33.7904 68.2596 33.3101 69.4732 33.3101ZM69.4732 92.5806C71.0913 92.5806 72.6431 91.9401 73.7873 90.8001C74.9315 89.66 75.5742 88.1138 75.5742 86.5016C75.5742 84.8893 74.9315 83.3431 73.7873 82.203C72.6431 81.063 71.0913 80.4225 69.4732 80.4225C67.8551 80.4225 66.3032 81.063 65.1591 82.203C64.0149 83.3431 63.3721 84.8893 63.3721 86.5016C63.3721 88.1138 64.0149 89.66 65.1591 90.8001C66.3032 91.9401 67.8551 92.5806 69.4732 92.5806Z" fill="white" fill-opacity="0.5"/>
<path fill-rule="evenodd" clip-rule="evenodd" d="M46.8636 16.4469C53.4039 8.1733 60.3347 2.91495 69.4741 2.91495C78.6135 2.91495 85.5443 8.1733 92.0847 16.4469C98.5152 24.5928 105.324 36.6292 114.049 52.0396L116.709 56.7326C123.914 69.4681 129.612 79.5289 132.602 87.5958C135.652 95.8511 136.384 103.34 131.76 109.948C127.276 116.362 119.79 118.982 110.345 120.222C100.943 121.456 88.2898 121.456 72.0671 121.456H66.8811C50.6523 121.456 38.0048 121.456 28.6031 120.222C19.1586 118.982 11.6726 116.362 7.18832 109.948C2.56371 103.34 3.28974 95.845 6.34638 87.5958C9.3359 79.5228 15.0343 69.4681 22.2397 56.7326L24.8997 52.0396C33.6181 36.6292 40.433 24.5867 46.8636 16.4469ZM54.0567 22.0882C48.1143 29.6079 41.6349 41.0304 32.6542 56.8967L30.4334 60.8177C22.9535 74.0335 17.6394 83.456 14.9367 90.7569C12.2644 97.9666 12.6305 101.784 14.6926 104.739C16.8951 107.875 21.0255 110.027 29.7989 111.182C38.5356 112.325 50.5791 112.337 67.2594 112.337H71.6949C88.3691 112.337 100.413 112.325 109.155 111.182C117.923 110.027 122.053 107.875 124.249 104.739C126.318 101.784 126.69 97.9666 124.018 90.7569C121.309 83.456 115.995 74.0335 108.515 60.8177L106.294 56.8967C97.3133 41.0304 90.8339 29.6079 84.8915 22.0882C79.004 14.6475 74.4343 12.0335 69.4741 12.0335C64.5139 12.0335 59.9442 14.6414 54.0567 22.0882Z" fill="white" fill-opacity="0.5"/>
</svg>
