<svg width="7" height="12" viewBox="0 0 7 12" fill="none" xmlns="http://www.w3.org/2000/svg">
<path d="M6.70469 6.71027L1.71296 11.7062C1.61988 11.7993 1.50937 11.8732 1.38775 11.9236C1.26613 11.974 1.13578 12 1.00413 12C0.738274 12 0.483301 11.8943 0.295309 11.7062C0.202225 11.613 0.128386 11.5024 0.0780092 11.3807C0.0276324 11.2589 0.00170441 11.1285 0.00170443 10.9967C0.00170448 10.7307 0.107317 10.4755 0.295309 10.2873L4.5882 6.00085L0.295311 1.71438C0.201737 1.6215 0.127467 1.51099 0.0767818 1.38923C0.0260971 1.26747 1.89937e-06 1.13687 1.92243e-06 1.00497C1.9455e-06 0.873066 0.0260972 0.742468 0.076782 0.620709C0.127467 0.498951 0.201738 0.388442 0.295311 0.295555C0.38812 0.201904 0.498538 0.127569 0.620196 0.0768424C0.741854 0.0261156 0.872343 1.52525e-07 1.00414 1.75569e-07C1.13593 1.98612e-07 1.26642 0.0261157 1.38808 0.0768426C1.50974 0.127569 1.62015 0.201904 1.71296 0.295555L6.70469 5.29144C6.79826 5.38432 6.87254 5.49483 6.92322 5.61659C6.97391 5.73835 7 5.86895 7 6.00085C7 6.13276 6.97391 6.26335 6.92322 6.38511C6.87254 6.50687 6.79826 6.61738 6.70469 6.71027Z" fill="#045BA7"/>
</svg>
