<svg width="217" height="8" viewBox="0 0 217 8" fill="none" xmlns="http://www.w3.org/2000/svg">
<path d="M5.40137 0.5H11.6191C12.1662 0.5 12.4595 1.10529 12.1504 1.52148L7.90625 7.23535C7.78362 7.40047 7.58711 7.5 7.37598 7.5H1.1582C0.611126 7.5 0.318854 6.89471 0.62793 6.47852L4.87109 0.764648C4.99369 0.599559 5.19028 0.500054 5.40137 0.5ZM17.1758 0.5H23.7051C24.2575 0.500295 24.5474 1.11556 24.2275 1.53027L19.8213 7.24512C19.6981 7.40473 19.5047 7.5 19.2979 7.5H12.7695C12.2169 7.5 11.9264 6.88453 12.2461 6.46973L16.6533 0.754883C16.7611 0.615308 16.9225 0.525301 17.0996 0.504883L17.1758 0.5ZM29.3135 0.5H35.8418C36.3944 0.5 36.685 1.11547 36.3652 1.53027L31.958 7.24512C31.8349 7.40448 31.6421 7.49989 31.4355 7.5H24.9072C24.3546 7.5 24.0639 6.88453 24.3838 6.46973L28.79 0.754883C28.9132 0.595242 29.1066 0.500015 29.3135 0.5Z" fill="#CED9DF" stroke="#CED9DF"/>
<rect x="35" width="182" height="1" rx="0.5" fill="#CED9DF"/>
</svg>
