<svg width="24" height="24" viewBox="0 0 24 24" fill="none" xmlns="http://www.w3.org/2000/svg">
<path fill-rule="evenodd" clip-rule="evenodd" d="M8.37151 7.48287C8.64868 7.61427 9.29532 7.5459 9.52759 8.34708C9.73686 9.06878 9.72826 10.7947 9.56653 11.5981C9.11932 13.8197 7.2315 10.306 6.76544 9.53411C6.52416 9.13441 6.10438 8.2228 5.91784 7.77802C5.59605 7.01055 4.82454 7.17402 3.90502 7.17402C3.55911 7.17402 3.32559 7.20567 2.99922 7.20499C2.48853 7.20375 1.5 7.10606 1.5 7.5755C1.5 7.93464 1.7058 8.2935 1.86434 8.60495L2.71859 10.2927C2.86784 10.5763 3.00477 10.8606 3.17343 11.14L3.63755 11.9472C4.85988 13.943 6.32847 16.2839 8.52769 17.3651C10.1946 18.1847 10.9791 18.1681 12.8068 18.1681C13.0913 18.1681 13.4487 18.0149 13.5476 17.8196C13.6681 17.5815 13.6558 17.1874 13.6821 16.8717C13.7466 16.1027 14.1244 15.0878 15.0376 15.7152C15.4703 16.0126 15.9961 16.7051 16.3909 17.0949C16.6049 17.3061 16.8638 17.5826 17.1041 17.7487C17.2272 17.8338 17.4309 17.9565 17.5581 18.0101C18.3132 18.328 19.1805 18.1678 20.1157 18.1681C20.6347 18.1682 21.5394 18.2529 21.9769 17.9701C22.6705 17.5216 21.9769 16.7202 21.5837 16.2225C21.3591 15.9383 20.4925 15.0307 20.1857 14.7635C18.1772 13.0148 18.5791 13.2983 20.6601 10.5534C21.0966 9.97752 22.2708 8.46848 22.2708 7.66812C22.2708 7.24856 21.8211 7.21266 21.4845 7.17731C21.3114 7.15922 21.2633 7.20389 21.0852 7.20608C20.532 7.21293 18.0127 7.1462 17.6975 7.25363C17.4939 7.3231 17.3782 7.53014 17.2955 7.72088C16.8273 8.7987 16.5082 9.54096 15.8369 10.5405C15.5651 10.9452 14.6946 12.3005 14.1499 12.3005C13.7596 12.3005 13.6189 11.5319 13.6189 11.1578C13.6189 10.0233 13.6814 8.98821 13.6814 7.88435C13.6814 7.64935 13.63 7.40298 13.5519 7.24034C13.2105 6.52973 11.3517 6.67991 10.4955 6.67991C9.87711 6.67991 8.88012 6.74322 8.49513 7.23445C8.43526 7.31104 8.38259 7.35201 8.37151 7.48287Z" fill="#345882"/>
</svg>
